<svg width="426" height="545" viewBox="0 0 426 545" fill="none" xmlns="http://www.w3.org/2000/svg" h-2em="" w-2em=""><path d="M254.418 0C256.543 0.9375 256.543 0.9375 258.418 2C258 7.47014 256.942 10.2373 253.293 14.3125C252.067 15.7453 252.067 15.7453 250.816 17.207C250.025 18.1287 249.233 19.0504 248.418 20C224.172 49.8694 217.051 93.8478 212.784 130.875C212.484 133.433 212.159 135.984 211.805 138.535C210.572 147.785 209.95 157.067 209.355 166.375C209.276 167.609 209.197 168.843 209.115 170.115C208.856 174.409 208.628 178.703 208.418 183C208.351 184.356 208.351 184.356 208.282 185.739C207.354 205.157 207.261 224.554 207.288 243.989C207.293 248.272 207.29 252.555 207.284 256.838C207.036 291.744 207.036 291.744 210.016 326.477C210.42 330.017 210.487 333.44 210.418 337C211.078 337 211.738 337 212.418 337C212.46 336.365 212.501 335.729 212.544 335.075C215.27 299.692 226.341 255.309 250.418 228C251.151 227.123 251.885 226.247 252.641 225.344C258.584 218.412 263.654 213.291 272.918 211.875C278.781 211.616 282.08 213.166 286.418 217C287.039 217.529 287.661 218.057 288.301 218.602C301.793 231.876 308.146 253.155 314.48 270.5C323.488 301.533 323.488 301.533 341.418 326C341.672 324.84 341.926 323.68 342.188 322.484C343.079 318.423 343.99 314.365 344.905 310.309C345.346 308.324 345.763 306.334 346.176 304.344C347.516 298.246 348.843 294.34 353.418 290C356.678 288.37 358.796 288.533 362.418 289C367.012 291.954 370.498 296.035 373.98 300.188C378.072 304.965 381.682 307.528 388.043 308.625C391.676 307.952 392.894 307.139 395.039 304.18C397.554 300.205 399.983 296.182 402.355 292.121C407.363 284.543 407.363 284.543 411.664 283.406C416.589 283.617 420.168 284.237 424.418 287C424.748 287.66 425.078 288.32 425.418 289C424.598 288.942 423.778 288.884 422.934 288.824C421.317 288.757 421.317 288.757 419.668 288.688C418.601 288.629 417.533 288.571 416.434 288.512C413.304 288.729 413.304 288.729 411.277 291.02C409.058 294.576 407.207 298.213 405.418 302C402.593 307.981 400.088 313.22 394.418 317C386.408 318.266 380.057 316.505 373.418 312C369.533 308.812 366.559 305.303 363.793 301.125C361.74 297.813 361.74 297.813 358.605 297.062C357.884 297.042 357.162 297.021 356.418 297C354.256 302.445 352.694 307.716 351.48 313.438C347.912 329.337 347.912 329.337 342.418 333C338.492 332.897 336.475 331.506 333.796 328.72C330.848 325.042 328.81 320.804 326.668 316.625C326.141 315.602 325.613 314.579 325.07 313.525C319.733 302.961 315.528 292.085 311.418 281C309.524 275.926 307.614 270.857 305.696 265.792C304.885 263.64 304.084 261.484 303.285 259.327C300.595 252.143 297.664 245.163 294.242 238.293C293.916 237.638 293.59 236.983 293.254 236.308C289.591 229.132 285.053 221.359 277.418 218C272.427 217.479 268.513 218.575 264.418 221.438C248.194 235.022 238.89 254.378 232.418 274.125C232.204 274.774 231.99 275.424 231.769 276.093C227.462 289.217 224.107 302.447 221.418 316C221.284 316.672 221.151 317.344 221.013 318.036C219.993 323.185 219.01 328.341 218.043 333.5C217.909 334.203 217.775 334.906 217.638 335.631C215.498 346.966 214.238 356.733 217.668 367.875C217.922 368.736 218.176 369.597 218.437 370.483C220.285 376.621 222.305 382.699 224.348 388.773C224.608 389.55 224.869 390.326 225.137 391.125C226.445 395.012 227.764 398.893 229.103 402.769C241.639 439.38 241.639 439.38 239.418 453C236.491 458.463 236.491 458.463 233.418 460C224.448 461.196 217.996 457.269 210.418 453C209.759 452.631 209.1 452.263 208.42 451.883C204.397 449.627 200.399 447.33 196.418 445C194.594 447.736 193.712 450.029 192.769 453.142C190.338 461.162 187.681 469.158 180.418 474C176.256 474.555 173.391 474.057 169.984 471.504C155.747 457.834 149.326 433.177 147.229 414.184C146.614 411.76 146.614 411.76 144.056 410.843C143.186 410.564 142.315 410.286 141.418 410C139.683 408.878 139.683 408.878 138.098 407.637C137.489 407.168 136.881 406.7 136.255 406.218C135.607 405.713 134.96 405.208 134.293 404.688C128.189 400.012 121.971 395.562 115.605 391.25C110.659 387.898 105.727 384.549 100.918 381C96.1211 377.465 91.217 374.104 86.293 370.75C69.166 359.074 52.3357 347.017 35.8008 334.516C34.7075 333.69 34.7075 333.69 33.592 332.848C32.2229 331.812 30.8561 330.773 29.4919 329.73C26.5606 327.51 23.7364 325.577 20.418 324C20.3733 324.711 20.3287 325.423 20.2827 326.156C19.6394 335.439 18.5286 344.634 17.3763 353.864C16.3419 362.237 15.3806 370.619 14.418 379C14.328 379.774 14.238 380.548 14.1453 381.346C11.7332 402.228 11.1365 422.983 11.1055 444C11.1 445.776 11.1 445.776 11.0943 447.587C11.0481 476.043 11.0795 506.525 19.7461 533.906C20.4866 537.316 20.2689 539.636 19.418 543C18.418 544 18.418 544 15.543 544.375C14.5117 544.251 13.4805 544.127 12.418 544C9.42045 540.123 8.41264 535.833 7.41797 531.125C7.16696 529.956 7.16696 529.956 6.91089 528.763C5.61313 522.459 4.60205 516.126 3.73047 509.75C3.61123 508.908 3.49199 508.067 3.36914 507.2C0.976869 488.418 1.23146 469.292 1.23267 450.396C1.23047 446.571 1.21221 442.745 1.19336 438.92C1.15735 423.83 1.75591 408.997 3.41797 394C3.5792 392.517 3.5792 392.517 3.74368 391.004C4.54376 383.705 5.40759 376.414 6.29297 369.125C6.42392 368.038 6.55487 366.951 6.68979 365.832C12.0052 321.826 12.0052 321.826 14.418 317C13.8662 316.758 13.3145 316.515 12.7461 316.266C9.90085 314.719 7.62368 312.861 5.16797 310.75C4.27594 310.002 3.38391 309.255 2.46484 308.484C0.417969 306 0.417969 306 0 302.836C0.417969 300 0.417969 300 2.35547 297.875C7.39894 294.787 12.6294 292.299 18.418 291C18.6629 290.083 18.9078 289.167 19.1602 288.223C29.9964 248.196 43.3983 209.239 59.418 171C60.3767 168.699 61.3351 166.399 62.293 164.098C63.0012 162.398 63.7095 160.699 64.418 159C63.651 159.566 62.884 160.131 62.0938 160.714C60.2643 162.063 58.4349 163.413 56.6055 164.762C54.1486 166.797 54.1486 166.797 54.2109 169.652C54.3134 170.814 54.3134 170.814 54.418 172C52.7305 173.875 52.7305 173.875 50.418 175C47.599 174.862 45.9603 174.355 43.6055 172.812C41.7354 169.958 41.8371 168.356 42.418 165C45.9167 159.801 50.606 156.021 55.668 152.438C56.2725 151.995 56.8771 151.552 57.5 151.096C60.2522 149.111 62.9143 147.256 65.9463 145.716C73.4433 141.835 75.7609 137.643 78.668 129.875C79.5846 127.624 80.508 125.375 81.4375 123.129C81.9165 121.96 82.3956 120.791 82.8892 119.586C85.4665 113.54 88.3961 107.679 91.3555 101.812C91.9465 100.64 92.5375 99.4679 93.1465 98.26C98.6742 87.3795 104.424 76.6304 110.418 66C110.851 65.2312 111.283 64.4625 111.729 63.6704C136.93 19.1637 136.93 19.1637 151.418 13C154.043 12.6875 154.043 12.6875 156.418 13C160.131 18.5689 158.867 24.9898 157.631 31.3369C156.747 35.5484 155.781 39.7404 154.799 43.93C153.734 48.4796 152.708 53.0379 151.688 57.5977C151.487 58.4933 151.286 59.3889 151.079 60.3117C148.684 71.1256 146.915 82.0269 145.418 93C146.099 92.4779 146.779 91.9559 147.48 91.418C153.233 87.0498 159.056 82.8535 165.043 78.8125C171.864 74.1926 178.363 69.2336 184.831 64.1333C189.422 60.5216 194.073 57.0412 198.855 53.6875C204.009 50.0658 208.94 46.2478 213.773 42.207C215.55 40.7245 217.345 39.2637 219.156 37.8242C229.432 29.6416 238.167 21.0329 245.348 10.043C251.027 1.69553 251.027 1.69553 254.418 0ZM144.418 25C130.422 39.8287 120.525 58.0502 111.048 75.9468C109.298 79.2253 107.511 82.4824 105.719 85.7383C99.3522 97.3433 93.282 109.015 87.918 121.125C87.4429 122.192 86.9678 123.259 86.4783 124.359C84.8176 128.131 84.8176 128.131 83.418 132C83.748 132.66 84.078 133.32 84.418 134C85.4737 133.285 86.5295 132.569 87.6172 131.832C96.0122 126.174 104.478 120.673 113.105 115.375C114.866 114.284 116.626 113.193 118.387 112.102C121.576 110.126 124.784 108.187 128.012 106.273C129.377 105.434 130.742 104.592 132.105 103.75C132.723 103.399 133.341 103.047 133.977 102.685C137.245 100.62 138.78 98.8247 139.645 95.1484C139.922 93.4353 140.177 91.7186 140.418 90C140.834 87.6632 141.255 85.3273 141.68 82.9922C141.912 81.6772 142.143 80.362 142.373 79.0466C144.906 64.6052 147.784 50.3046 151.233 36.0522C152.695 29.8805 153.814 24.3476 153.418 18C150.303 18 146.494 22.9959 144.418 25ZM222.418 44.6875C215.785 50.7229 208.642 56.0468 201.484 61.4395C198.531 63.6701 195.599 65.9273 192.668 68.1875C191.626 68.988 190.585 69.7885 189.512 70.6133C187.444 72.2083 185.382 73.8099 183.324 75.418C177.273 80.1283 171.134 84.6596 164.855 89.0625C157.132 94.4803 157.132 94.4803 149.48 100C148.075 101.021 148.075 101.021 146.641 102.062C141.107 106.886 141.453 114.103 140.668 120.96C140.431 123.016 140.176 125.068 139.918 127.121C136.015 159.458 136.125 191.941 136.222 224.455C136.233 229.06 136.233 233.665 136.232 238.27C136.232 242.752 136.238 247.233 136.245 251.715C136.248 253.832 136.25 255.949 136.251 258.066C136.259 268.432 136.346 278.679 137.418 289C137.534 290.532 137.643 292.065 137.743 293.599C137.791 294.315 137.838 295.03 137.887 295.767C137.934 296.5 137.982 297.233 138.031 297.988C140.108 329.033 142.593 359.952 147.543 390.688C147.671 391.49 147.799 392.293 147.931 393.12C148.295 395.377 148.67 397.632 149.051 399.887C149.266 401.168 149.482 402.449 149.704 403.768C150.966 409.477 152.595 411.425 157.574 414.604C158.286 415.044 158.997 415.484 159.73 415.938C160.467 416.403 161.204 416.868 161.963 417.347C163.571 418.359 165.182 419.366 166.796 420.369C169.586 422.105 172.365 423.856 175.145 425.609C177.048 426.803 178.951 427.996 180.855 429.188C181.773 429.764 182.691 430.341 183.636 430.935C184.918 431.731 184.918 431.731 186.227 432.543C187.368 433.255 187.368 433.255 188.533 433.981C190.354 435.158 190.354 435.158 192.418 435C195.033 424.897 197.477 414.76 199.819 404.591C200.221 402.851 200.627 401.112 201.037 399.374C206.695 375.347 209.933 355.329 204.128 331.101C198.386 306.022 200.254 278.673 200.288 253.105C200.293 248.766 200.29 244.427 200.284 240.088C200.254 213.337 200.556 186.62 202.668 159.938C202.73 159.136 202.793 158.334 202.857 157.507C205.702 121.586 211.41 86.9302 223.423 52.8389C224.801 48.9073 226.112 44.9557 227.418 41C225.442 41 223.748 43.4364 222.418 44.6875ZM129.605 114.188C123.646 118.559 117.487 122.483 111.168 126.312C101.913 131.945 93.0317 137.986 84.4045 144.543C82.418 146 82.418 146 80.3357 147.287C73.7992 151.519 71.5048 157.007 68.6055 164.062C68.0976 165.255 67.5897 166.447 67.0664 167.676C65.4752 171.434 63.9401 175.214 62.418 179C61.9496 180.161 61.4811 181.322 60.9985 182.519C38.029 234.975 38.029 234.975 27.418 290C28.1895 289.945 28.961 289.889 29.7559 289.832C45.918 288.673 48.418 288 58.918 288C74.4014 288 76.6367 285 86.293 285C95.3667 284.744 159.479 282.96 168.556 283C153.593 285.021 79.4873 292.801 64.418 293.618C44.418 294.703 45.418 295 25.418 296C24.7852 298.426 24.2554 300.792 23.793 303.25C23.6589 303.906 23.5248 304.562 23.3867 305.238C22.6138 309.205 21.9602 312.972 22.418 317C23.8527 319.094 23.8527 319.094 26.043 320.75C27.2882 321.775 27.2882 321.775 28.5586 322.82C32.781 326.039 37.0824 329.13 41.4297 332.176C45.0704 334.735 48.6444 337.377 52.2146 340.034C60.2359 346.002 68.3619 351.771 76.6367 357.382C81.9116 360.959 87.1202 364.614 92.2913 368.34C96.5413 371.394 100.845 374.363 105.168 377.312C111.083 381.355 116.926 385.488 122.73 389.688C123.487 390.235 124.243 390.782 125.022 391.346C128.337 393.749 131.643 396.161 134.93 398.602C135.916 399.331 136.902 400.061 137.918 400.812C139.171 401.75 139.171 401.75 140.449 402.707C142.304 404.183 142.304 404.183 144.418 404C143.851 395.439 142.732 387.014 141.434 378.539C139.272 364.295 137.58 350.031 136.23 335.688C136.106 334.365 136.106 334.365 135.979 333.016C135.132 323.919 134.371 314.821 133.797 305.703C133.752 304.989 133.707 304.275 133.66 303.54C133.455 300.233 133.267 296.927 133.101 293.618C133.038 292.485 132.975 291.351 132.91 290.184C132.862 289.199 132.814 288.215 132.765 287.201C132.651 286.475 132.536 285.748 132.418 285C131.758 284.67 131.098 284.34 130.418 284C130.748 283.67 131.078 283.34 131.418 283C131.503 280.432 131.522 277.891 131.5 275.323C131.497 274.516 131.494 273.708 131.49 272.877C131.483 271.108 131.474 269.34 131.463 267.572C131.445 264.724 131.435 261.876 131.427 259.029C131.402 250.925 131.368 242.821 131.322 234.717C131.124 198.705 131.356 162.565 135.543 126.75C135.728 125.072 135.911 123.393 136.094 121.715C136.521 117.808 136.964 113.904 137.418 110C134.203 110 132.095 112.323 129.605 114.188ZM11.3555 298.5C9.69838 299.196 9.69838 299.196 8.00781 299.906C7.15316 300.267 6.29852 300.628 5.41797 301C5.9793 304.537 7.11355 305.993 9.85547 308.25C10.4729 308.771 11.0904 309.292 11.7266 309.828C13.349 311.19 13.349 311.19 15.418 311C16.408 306.05 17.398 301.1 18.418 296C16.0828 296 13.4466 297.62 11.3555 298.5ZM210.418 371C210.147 372.485 210.147 372.485 209.871 374C209.02 378.647 208.159 383.293 207.293 387.938C207.137 388.775 206.981 389.613 206.82 390.476C204.619 402.233 202.201 413.877 199.197 425.459C198.015 430.084 197.088 434.177 197.418 439C200.791 440.94 204.167 442.877 207.543 444.812C208.494 445.36 209.446 445.907 210.426 446.471C220.764 452.713 220.764 452.713 232.418 454C234.083 452.335 233.584 450.37 233.598 448.086C233.537 442.411 232.781 437.152 231.543 431.625C231.33 430.656 231.116 429.687 230.896 428.689C228.07 416.6 223.792 404.989 219.594 393.324C217.684 387.926 215.926 382.478 214.219 377.012C213.673 375.323 213.054 373.658 212.418 372C211.758 371.67 211.098 371.34 210.418 371ZM153.418 418C155.938 434.163 160.569 456.497 173.496 467.82C175.397 469.209 175.397 469.209 177.918 469.062C181.962 467.344 183.656 463.792 185.317 459.886C186.176 457.564 186.964 455.229 187.73 452.875C188.007 452.077 188.283 451.279 188.568 450.457C188.824 449.685 189.08 448.913 189.344 448.117C189.575 447.422 189.806 446.727 190.044 446.011C190.504 443.536 190.453 442.308 189.418 440C187.239 438.173 187.239 438.173 184.457 436.574C183.427 435.942 182.397 435.31 181.336 434.658C180.249 434.008 179.163 433.358 178.043 432.688C175.931 431.4 173.819 430.112 171.707 428.824C170.667 428.196 169.627 427.567 168.556 426.919C164.488 424.431 160.48 421.854 156.478 419.261C154.678 417.913 154.678 417.913 153.418 418Z" fill="white"></path></svg>